<svg 
    xmlns="http://www.w3.org/2000/svg" 
    xmlns:xlink="http://www.w3.org/1999/xlink" 
    viewBox="0 0 80 24" 
    width="80" 
    height="24"
>
    <!-- Twitter Icon -->
    <g id="twitter" transform="translate(0, 0)">
        <path fill="#1DA1F2" d="M23.954 4.569a10.167 10.167 0 01-2.825.775 4.993 4.993 0 002.163-2.738 9.87 9.87 0 01-3.127 1.184A4.935 4.935 0 0016.616 3c-2.735 0-4.951 2.239-4.951 4.999 0 .394.045.778.127 1.151-4.115-.205-7.756-2.17-10.186-5.157-.427.732-.671 1.577-.671 2.476 0 1.71.869 3.213 2.189 4.094a4.93 4.93 0 01-2.24-.616v.061c0 2.388 1.69 4.384 3.935 4.843-.413.112-.845.171-1.292.171-.315 0-.624-.031-.93-.087.629 1.953 2.445 3.373 4.604 3.414a9.865 9.865 0 01-6.104 2.095c-.396 0-.786-.023-1.17-.067a13.93 13.93 0 007.548 2.212c9.055 0 14.005-7.497 14.005-13.986 0-.211-.005-.423-.014-.634A9.936 9.936 0 0024 4.59a9.933 9.933 0 01-2.906.794z"/>
    </g>
    
    <!-- Instagram Icon -->
    <g id="instagram" transform="translate(30, 0)">
        <path fill="#E4405F" d="M12 2.162c3.428 0 3.848.013 5.198.075 1.362.063 2.289.294 2.826.61a5.56 5.56 0 011.984 1.984c.316.537.548 1.464.611 2.826.062 1.35.075 1.77.075 5.198s-.013 3.848-.075 5.198c-.063 1.362-.294 2.289-.611 2.826a5.56 5.56 0 01-1.984 1.984c-.537.316-1.464.548-2.826.611-1.35.062-1.77.075-5.198.075s-3.848-.013-5.198-.075c-1.362-.063-2.289-.294-2.826-.611a5.56 5.56 0 01-1.984-1.984c-.316-.537-.548-1.464-.611-2.826C2.162 15.01 2.15 14.69 2.15 12s.013-3.848.075-5.198c.063-1.362.294-2.289.611-2.826a5.56 5.56 0 011.984-1.984c.537-.316 1.464-.548 2.826-.611C8.152 2.162 8.472 2.15 12 2.15zM12 5.841a6.15 6.15 0 100 12.3 6.15 6.15 0 000-12.3zm0 10.659a4.51 4.51 0 110-9.021 4.51 4.51 0 010 9.021zm6.438-10.392a1.438 1.438 0 110-2.876 1.438 1.438 0 010 2.876z"/>
    </g>
    
    <!-- LinkedIn Icon -->
    <g id="linkedin" transform="translate(60, 0)">
        <path fill="#0077B5" d="M22.225 0H1.775C.794 0 0 .794 0 1.775v20.451C0 23.206.794 24 1.775 24h20.451C23.206 24 24 23.206 24 22.225V1.775C24 .794 23.206 0 22.225 0zM7.038 20.452H3.75V9h3.288v11.452zm-1.644-13.03a1.902 1.902 0 110-3.804 1.902 1.902 0 010 3.804zm17.354 13.03h-3.288v-5.5c0-1.311-.024-2.998-1.826-2.998-1.828 0-2.109 1.426-2.109 2.896v5.601h-3.288V9h3.15v1.558h.045c.438-.83 1.506-1.7 3.096-1.7 3.314 0 3.92 2.18 3.92 5.024v6.57z"/>
    </g>
</svg>


